<svg id="圖層_1" data-name="圖層 1" xmlns="http://www.w3.org/2000/svg" viewBox="0 0 79 81"><defs><style>.cls-1{fill:#233144;}.cls-2{fill:#b0b6bb;}.cls-3{fill:#e8edee;}.cls-4{fill:#ffd15c;}.cls-5{fill:#93c4e5;}.cls-6{fill:#d75a4a;}.cls-7{fill:#efc75e;}.cls-8{fill:#5b717c;}</style></defs><title>Guideline</title><circle class="cls-1" cx="39.11" cy="39.11" r="39.11"/><path class="cls-2" d="M43.14,59.57c0,5.92-1.6,10.72-3.57,10.72S36,65.49,36,59.57s1.6-10.71,3.57-10.71,3.57,4.8,3.57,10.71"/><path class="cls-3" d="M52.66,44.1c0-3.25-.17-6.09-.38-8.36a39.46,39.46,0,0,0-3.51-13.29C44.58,13.58,39.57,12,39.57,12s-5,1.62-9.2,10.49a39.69,39.69,0,0,0-3.51,13.29c-.21,2.27-.38,5.11-.38,8.36,0,0-.15,14.14,3.57,17.86,0,0,1.79,2.5,6.5,3.31a27.9,27.9,0,0,1-.55-5.7c0-5.91,1.6-10.71,3.57-10.71s3.57,4.8,3.57,10.71a27.9,27.9,0,0,1-.55,5.7c4.71-.81,6.5-3.31,6.5-3.31,3.72-3.72,3.57-17.86,3.57-17.86"/><path class="cls-2" d="M52.66,48.86l-.17.36c-.31,4.44-1.15,10.49-3.4,12.74L49,62v0l-.16.18s0,0,0,0l7.85,5.5a1.23,1.23,0,0,0,1.93-1V62c0-9.38-6-13.1-6-13.1"/><path class="cls-2" d="M30.12,62l0,0L30.05,62c-2.25-2.25-3.08-8.3-3.39-12.74l-.18-.36S20.53,52.58,20.53,62v4.79a1.22,1.22,0,0,0,1.92,1l7.85-5.5,0,0a1.55,1.55,0,0,1-.15-.18"/><path class="cls-4" d="M43.8,66a4.67,4.67,0,0,0-1.18-.91c-.62,3.1-1.75,5.17-3,5.17s-2.42-2.07-3-5.16a5.78,5.78,0,0,0-1.18.9,6,6,0,0,0-.67,7.61L39.57,81l4.91-7.34A6,6,0,0,0,43.8,66"/><path class="cls-5" d="M47.9,35.77a8.33,8.33,0,1,1-8.33-8.33,8.33,8.33,0,0,1,8.33,8.33"/><path class="cls-3" d="M43.14,35.77a3.57,3.57,0,1,1-3.57-3.57,3.57,3.57,0,0,1,3.57,3.57"/><path class="cls-6" d="M39.57,22.68a13.61,13.61,0,0,0,8-2.5c-3.9-6.86-8-8.22-8-8.22s-4.12,1.36-8,8.22a13.56,13.56,0,0,0,8,2.5"/><path class="cls-7" d="M14.93,4.51C14.54,8,12.62,9.9,9.15,10.29c3.47.39,5.39,2.31,5.78,5.78.38-3.47,2.31-5.39,5.78-5.78C17.24,9.9,15.31,8,14.93,4.51ZM65.6,50.57a4.61,4.61,0,0,1-4.5,4.49,4.61,4.61,0,0,1,4.5,4.5,4.61,4.61,0,0,1,4.5-4.5A4.61,4.61,0,0,1,65.6,50.57Z"/><path class="cls-8" d="M45.1,2.65a3.3,3.3,0,0,1-3.21,3.22A3.28,3.28,0,0,1,45.1,9.08a3.3,3.3,0,0,1,3.22-3.21A3.31,3.31,0,0,1,45.1,2.65ZM10.85,36.83A2.64,2.64,0,0,1,8.28,39.4,2.63,2.63,0,0,1,10.85,42a2.63,2.63,0,0,1,2.57-2.57A2.64,2.64,0,0,1,10.85,36.83Zm61.44-7.44a3.3,3.3,0,0,1-3.22,3.21,3.3,3.3,0,0,1,3.22,3.21A3.29,3.29,0,0,1,75.5,32.6,3.29,3.29,0,0,1,72.29,29.39Z"/></svg>