<?xml version="1.0" encoding="UTF-8"?>
<svg width="28px" height="28px" viewBox="0 0 28 28" version="1.1" xmlns="http://www.w3.org/2000/svg" xmlns:xlink="http://www.w3.org/1999/xlink">
    <!-- Generator: Sketch 51.3 (57544) - http://www.bohemiancoding.com/sketch -->
    <title>Product/Chess</title>
    <desc>Created with Sketch.</desc>
    <defs>
        <circle id="path-1" cx="14" cy="14" r="14"></circle>
    </defs>
    <g id="Product/Chess" stroke="none" stroke-width="1" fill="none" fill-rule="evenodd">
        <g id="Group">
            <mask id="mask-2" fill="white">
                <use xlink:href="#path-1"></use>
            </mask>
            <use id="Oval" fill="#D8D8D8" xlink:href="#path-1"></use>
            <g id="Product/Chess" mask="url(#mask-2)" fill="#5AE244">
                <polygon id="#13E479-#95CA40" points="0 0 28 0 28 28 0 28"></polygon>
            </g>
            <path d="M19.8333713,19.0556632 L18.9214239,19.0556632 L17.8103526,13.2223108 L18.277993,13.2223108 C18.707109,13.2223108 19.0555302,12.8738288 19.0555302,12.4444698 C19.0555302,12.0151107 18.707109,11.6666287 18.277993,11.6666287 L17.5141277,11.6666287 L17.4989366,11.5880607 C17.4856293,11.0511493 17.3339621,10.5479619 17.0809405,10.1112504 L17.5001519,10.1112504 C17.8435905,10.1112504 18.1464995,9.88599789 18.2451804,9.55696036 L19.4118508,5.66805882 C19.4825802,5.43284104 19.4374933,5.17769264 19.2905657,4.98020935 C19.1443066,4.78296913 18.9124308,4.66666667 18.6667616,4.66666667 L16.3335422,4.66666667 C16.3244884,4.66666667 16.3159206,4.66903647 16.3066845,4.66927952 C16.2777608,4.67043404 16.2490194,4.67401912 16.220278,4.67802955 C16.1977345,4.68137158 16.1747049,4.68447054 16.1528906,4.68969626 C16.1272481,4.69583343 16.102821,4.70440116 16.0776646,4.7129689 C16.0539059,4.72105052 16.0301471,4.72931444 16.0076036,4.74025198 C15.9862755,4.75021729 15.9656157,4.76230934 15.9444698,4.77440139 C15.9205287,4.7884379 15.89677,4.80265669 15.8744695,4.819063 C15.8671171,4.82453176 15.8585493,4.82805608 15.8511969,4.83425402 L14.3714699,6.00371963 L12.9340346,4.83972279 C12.9255276,4.83279568 12.9157446,4.82854219 12.9069946,4.82191891 C12.8846942,4.80502649 12.8614215,4.79032158 12.8371767,4.77634584 C12.8168207,4.76419303 12.796404,4.75258709 12.775015,4.74237872 C12.7512562,4.73119813 12.7268291,4.72220504 12.7019158,4.71345501 C12.678157,4.70513033 12.6548844,4.69704871 12.6307003,4.69109383 C12.6067592,4.68544277 12.5825144,4.68112852 12.5576011,4.6776042 C12.5308041,4.67353301 12.5049186,4.67043404 12.4776356,4.66927952 C12.4662119,4.66927952 12.4557605,4.66666667 12.4446407,4.66666667 L10.1111174,4.66666667 C9.86544824,4.66666667 9.6340586,4.78296913 9.48737409,4.98020935 C9.34087188,5.17720652 9.29554187,5.43241569 9.36651432,5.66805882 L10.5331848,9.55696036 C10.6314403,9.88599789 10.9345316,10.1112504 11.2777271,10.1112504 L11.6971816,10.1112504 C11.4434308,10.5479619 11.2922498,11.0511493 11.2786994,11.5880607 L11.2637514,11.6666287 L10.5001899,11.6666287 C10.0707701,11.6666287 9.72234881,12.0151107 9.72234881,12.4444698 C9.72234881,12.8738288 10.0707701,13.2223108 10.5001899,13.2223108 L10.9675265,13.2223108 L9.85645515,19.0556632 L8.94450774,19.0556632 C8.5151487,19.0556632 8.16666667,19.4040844 8.16666667,19.8335042 L8.16666667,22.5554923 C8.16666667,22.9849121 8.5151487,23.3333333 8.94450774,23.3333333 L19.8333713,23.3333333 C20.2627911,23.3333333 20.6112124,22.9849121 20.6112124,22.5554923 L20.6112124,19.8335042 C20.6112124,19.4040844 20.2627911,19.0556632 19.8333713,19.0556632 Z M11.156442,6.22234881 L12.1692578,6.22234881 L13.876121,7.60424567 C14.0187951,7.71981897 14.1922766,7.77772714 14.3655757,7.77772714 C14.536019,7.77772714 14.7064015,7.72170265 14.8483464,7.61013979 L16.6036386,6.22234881 L17.621437,6.22234881 L16.9214347,8.55556821 L11.8564443,8.55556821 L11.156442,6.22234881 Z M15.9444698,11.6666287 L12.8334093,11.6666287 C12.8334093,10.8088221 13.530981,10.1112504 14.3890914,10.1112504 C15.246898,10.1112504 15.9444698,10.8088221 15.9444698,11.6666287 Z M12.5511601,13.2223108 L16.226962,13.2223108 L17.3380333,19.0556632 L11.4400888,19.0556632 L12.5511601,13.2223108 Z M9.72234881,21.777955 L19.0555302,21.777955 L19.0555302,20.6110415 L9.72234881,20.6110415 L9.72234881,21.777955 Z" id="Fill-1" fill="#FFFFFF" mask="url(#mask-2)"></path>
        </g>
    </g>
</svg>