<?xml version="1.0" encoding="UTF-8"?>
<svg width="28px" height="28px" viewBox="0 0 28 28" version="1.1" xmlns="http://www.w3.org/2000/svg" xmlns:xlink="http://www.w3.org/1999/xlink">
    <!-- Generator: Sketch 51.3 (57544) - http://www.bohemiancoding.com/sketch -->
    <title>Product/Casino</title>
    <desc>Created with Sketch.</desc>
    <defs>
        <circle id="path-1" cx="14" cy="14" r="14"></circle>
    </defs>
    <g id="Product/Casino" stroke="none" stroke-width="1" fill="none" fill-rule="evenodd">
        <g id="Group">
            <mask id="mask-2" fill="white">
                <use xlink:href="#path-1"></use>
            </mask>
            <use id="Oval" fill="#D8D8D8" xlink:href="#path-1"></use>
            <g id="Product/Video" mask="url(#mask-2)" fill="#FFCF00">
                <polygon id="#FFDF69-#7D82AE" points="0 0 28 0 28 28 0 28"></polygon>
            </g>
            <g id="cards-playing-outline-(6)" mask="url(#mask-2)" fill="#FFFFFF" fill-rule="nonzero">
                <g transform="translate(4.666667, 5.833333)" id="Shape">
                    <path d="M8.87013602,0.274509804 C9.53358138,0.283015514 10.1630039,0.682783869 10.4096695,1.33772352 L14.6625243,11.5020466 C14.7390757,11.7231951 14.7816043,11.9698606 14.7730985,12.1825034 C14.7560871,12.8204316 14.3648245,13.4498541 13.7268963,13.7135311 L7.45818821,16.3077726 C7.23703976,16.4098411 7.00738559,16.4353582 6.78623714,16.4353582 C6.1312975,16.4183468 5.51038069,16.0270842 5.24670369,15.3721445 L1.02787168,5.20782143 C0.67063187,4.34874475 1.08741164,3.35357671 1.95499403,2.99633691 L8.21519637,0.402095449 C8.42783911,0.325544062 8.64898757,0.274509804 8.87013602,0.274509804 Z M11.830123,0.274509804 L13.0634509,0.274509804 C14.0029657,0.274509804 14.7645928,1.03613699 14.7645928,1.97565174 L14.7645928,7.3767774 L11.830123,0.274509804 Z M16.4742405,1.5843891 L17.6140056,2.06921455 C18.4900937,2.42645436 18.889862,3.41311668 18.5411279,4.28069907 L16.4742405,9.26504495 L16.4742405,1.5843891 Z M8.87013602,1.95013461 L2.58441655,4.56138749 L6.81175427,14.7767448 L13.1059794,12.1739977 L8.87013602,1.95013461 Z M6.70968576,5.6246012 L9.45702999,7.67447724 L9.08277876,11.0852668 L6.33543453,9.02688508 L6.70968576,5.6246012 Z"></path>
                </g>
            </g>
        </g>
    </g>
</svg>