<?xml version="1.0" encoding="UTF-8"?>
<svg width="28px" height="28px" viewBox="0 0 28 28" version="1.1" xmlns="http://www.w3.org/2000/svg" xmlns:xlink="http://www.w3.org/1999/xlink">
    <!-- Generator: Sketch 51.3 (57544) - http://www.bohemiancoding.com/sketch -->
    <title>Product/Lottery</title>
    <desc>Created with Sketch.</desc>
    <defs>
        <circle id="path-1" cx="14" cy="14" r="14"></circle>
    </defs>
    <g id="Product/Lottery" stroke="none" stroke-width="1" fill="none" fill-rule="evenodd">
        <g id="Group-2">
            <mask id="mask-2" fill="white">
                <use xlink:href="#path-1"></use>
            </mask>
            <use id="Oval" fill="#D8D8D8" xlink:href="#path-1"></use>
            <g id="Product/Lottery" mask="url(#mask-2)" fill="#FF842C">
                <polygon id="#FED97C-#FF7176" points="0 0 28 0 28 28 0 28"></polygon>
            </g>
            <g id="Group" mask="url(#mask-2)" fill="#FFFFFF">
                <g transform="translate(4.666667, 4.666667)">
                    <path d="M9.33348524,0 C4.18725321,0 0,4.1867671 0,9.33348524 C0,14.4798996 4.18725321,18.6666667 9.33348524,18.6666667 C14.4796565,18.6666667 18.6666667,14.4798996 18.6666667,9.33348524 C18.6666667,4.1867671 14.4796565,0 9.33348524,0 Z M9.33348524,17.1112883 C5.04463448,17.1112883 1.55568215,13.622093 1.55568215,9.33348524 C1.55568215,5.04463448 5.04463448,1.55568215 9.33348524,1.55568215 C13.622093,1.55568215 17.1112883,5.04463448 17.1112883,9.33348524 C17.1112883,13.622093 13.622093,17.1112883 9.33348524,17.1112883 Z" id="Fill-1"></path>
                    <path d="M11.1052677,8.64430098 C11.4259332,8.24745089 11.6191539,7.74234716 11.6191539,7.19208276 C11.6191539,5.92182663 10.593941,4.88888889 9.33348215,4.88888889 C8.07272565,4.88888889 7.04751275,5.92182663 7.04751275,7.19208276 C7.04751275,7.74234716 7.24073351,8.24745089 7.56139901,8.64430098 C7.01358304,9.13651024 6.66666667,9.85086438 6.66666667,10.6464238 C6.66666667,12.1279694 7.86319482,13.3333333 9.33348215,13.3333333 C10.8034718,13.3333333 12,12.1279694 12,10.6464238 C12,9.85086438 11.6530836,9.13651024 11.1052677,8.64430098 Z M9.33348215,6.42435147 C9.75361526,6.42435147 10.0951743,6.76848413 10.0951743,7.19208276 C10.0951743,7.61538152 9.75361526,7.95951418 9.33348215,7.95951418 C8.9130514,7.95951418 8.57149235,7.61538152 8.57149235,7.19208276 C8.57149235,6.76848413 8.9130514,6.42435147 9.33348215,6.42435147 Z M9.33348215,11.7978708 C8.703342,11.7978708 8.19034864,11.2813119 8.19034864,10.6464238 C8.19034864,10.0115356 8.703342,9.49497676 9.33348215,9.49497676 C9.96362229,9.49497676 10.476318,10.0115356 10.476318,10.6464238 C10.476318,11.2813119 9.96362229,11.7978708 9.33348215,11.7978708 Z" id="Fill-4"></path>
                    <path d="M15.4689768,6.72532473 C15.292782,6.3138235 14.7963847,6.11482549 14.3582303,6.28071998 C13.9217418,6.44705417 13.7100949,6.91596834 13.8870893,7.32772084 C14.4417962,8.62202446 14.4277352,10.0415184 13.8465059,11.3247666 C13.6613815,11.7333155 13.8631657,12.2056845 14.2965888,12.3796193 C14.4056109,12.4235899 14.5190979,12.4444444 14.6307857,12.4444444 C14.9621837,12.4444444 15.2779214,12.2611502 15.4161317,11.9556179 C16.1760214,10.276321 16.1947471,8.41913192 15.4689768,6.72532473 Z" id="Fill-5"></path>
                </g>
            </g>
        </g>
    </g>
</svg>