<?xml version="1.0" encoding="UTF-8"?>
<svg width="28px" height="28px" viewBox="0 0 28 28" version="1.1" xmlns="http://www.w3.org/2000/svg" xmlns:xlink="http://www.w3.org/1999/xlink">
    <!-- Generator: Sketch 51.3 (57544) - http://www.bohemiancoding.com/sketch -->
    <title>Product/Slot</title>
    <desc>Created with Sketch.</desc>
    <defs>
        <circle id="path-1" cx="14" cy="14" r="14"></circle>
    </defs>
    <g id="Product/Slot" stroke="none" stroke-width="1" fill="none" fill-rule="evenodd">
        <g id="Group">
            <mask id="mask-2" fill="white">
                <use xlink:href="#path-1"></use>
            </mask>
            <use id="Oval-2" fill="#D8D8D8" xlink:href="#path-1"></use>
            <g id="Product/Slotgame" mask="url(#mask-2)" fill="#FF40BC">
                <polygon id="#FF64A2-#95B4FF" points="0 0 28 0 28 28 0 28"></polygon>
            </g>
            <path d="M18.3556139,13.2002167 C18.3524637,13.2002167 18.3494886,13.20045 18.3462801,13.20045 C17.037797,10.2535337 17.8274371,6.06172084 17.8358375,6.01796862 C17.8884568,5.74979667 17.8032858,5.47316596 17.6090843,5.28106453 C17.4147078,5.08872977 17.137377,5.00624224 16.8696718,5.06137004 C15.8622039,5.26875557 14.971467,5.65587523 14.2073782,6.21077008 C12.9720488,5.21065262 11.4441629,4.66666667 9.83262275,4.66666667 C7.97151991,4.66666667 6.22189773,5.39155348 4.90594757,6.70756197 C4.58690637,7.02636983 4.58690637,7.54363776 4.90594757,7.86244562 C6.22189773,9.17862912 7.97151991,9.90328259 9.83262275,9.90328259 C10.4811473,9.90328259 11.1160213,9.81466976 11.7240021,9.64444444 C11.6651991,9.80504427 11.610013,9.96937761 11.5585604,10.1375612 C11.1832247,11.3651318 11.0836446,12.5286492 11.064277,13.2692285 C8.71075745,13.6634652 6.91143274,15.714336 6.91143274,18.1781695 C6.91143274,20.9227172 9.14442947,23.1554222 11.8892105,23.1554222 C13.0909965,23.1554222 14.2303627,22.7279338 15.1243665,21.9611032 C15.9946273,22.7053577 17.123493,23.1556556 18.3556139,23.1556556 C21.1003949,23.1556556 23.3333333,20.9227172 23.3333333,18.1779361 C23.3333333,15.4333884 21.1003949,13.2002167 18.3556139,13.2002167 Z M16.696938,13.4848395 C16.1158502,13.6908249 15.5839981,14.0016407 15.1243665,14.394944 C14.4341314,13.8027139 13.5978223,13.4132608 12.6992683,13.2662534 C12.719336,12.6247875 12.8088822,11.6151029 13.1336404,10.5730416 C13.6748262,8.8354367 14.6535342,7.64683467 16.0504552,7.02543645 C15.8966224,8.5768319 15.8234686,11.2201661 16.696938,13.4848395 Z M6.74214081,7.28497463 C7.63859467,6.6450838 8.70918237,6.30008295 9.83262275,6.30008295 C10.9560048,6.30008295 12.0265925,6.6450838 12.9230464,7.28497463 C12.0265925,7.92463211 10.9560048,8.26986631 9.83262275,8.26986631 C8.70918237,8.26986631 7.63859467,7.92486546 6.74214081,7.28497463 Z M8.54484902,18.1781695 C8.54484902,16.3341592 10.0449669,14.8338663 11.8892105,14.8338663 C12.7009017,14.8338663 13.4699491,15.1246144 14.072213,15.6450908 C13.6315407,16.3877119 13.3778945,17.2536558 13.3778945,18.1779361 C13.3778945,19.1022164 13.6315407,19.9683354 14.072213,20.7107814 C13.4699491,21.2312578 12.7009017,21.5220059 11.8892105,21.5220059 C10.0449669,21.5220059 8.54484902,20.0218881 8.54484902,18.1781695 Z M18.3556139,21.5222393 C16.5116619,21.5222393 15.0113107,20.0218881 15.0113107,18.1779361 C15.0113107,16.3339258 16.5116619,14.833633 18.3556139,14.833633 C20.1996242,14.833633 21.6999171,16.3339258 21.6999171,18.1779361 C21.6999171,20.0221214 20.1996242,21.5222393 18.3556139,21.5222393 Z" id="Fill-1" fill="#FFFFFF" mask="url(#mask-2)"></path>
        </g>
    </g>
</svg>