<?xml version="1.0" encoding="UTF-8"?>
<svg width="28px" height="28px" viewBox="0 0 28 28" version="1.1" xmlns="http://www.w3.org/2000/svg" xmlns:xlink="http://www.w3.org/1999/xlink">
    <!-- Generator: Sketch 51.3 (57544) - http://www.bohemiancoding.com/sketch -->
    <title>Product/Sport</title>
    <desc>Created with Sketch.</desc>
    <defs>
        <circle id="path-1" cx="14" cy="14" r="14"></circle>
    </defs>
    <g id="Product/Sport" stroke="none" stroke-width="1" fill="none" fill-rule="evenodd">
        <g id="Group">
            <mask id="mask-2" fill="white">
                <use xlink:href="#path-1"></use>
            </mask>
            <use id="Oval" fill="#D8D8D8" xlink:href="#path-1"></use>
            <g id="Product/Sport" mask="url(#mask-2)" fill="#5093FF">
                <polygon id="#3F95FF-#88FFEE" points="0 0 28 0 28 28 0 28"></polygon>
            </g>
            <path d="M23.7937366,10.2346996 C22.7865904,7.61368766 20.8232231,5.54351754 18.2653594,4.40572815 C16.9144041,3.80486349 15.4842395,3.5 14.0146344,3.5 C9.86254365,3.5 6.09219329,5.94685114 4.40878202,9.73361801 C3.27110785,12.2922656 3.19931416,15.1448792 4.20626342,17.7658256 C5.21340956,20.3865749 7.17677687,22.456745 9.73464062,23.594797 C11.0850709,24.1953991 12.5147105,24.5 13.9843813,24.5 L13.9851031,24.5 C17.3550757,24.5 20.5268608,22.8829237 22.4956094,20.1670522 L22.7040343,19.866784 C23.0483028,19.3551989 23.3464369,18.817749 23.591218,18.2666446 C24.7288921,15.707997 24.8006858,12.8556459 23.7937366,10.2346996 Z M19.5993834,7.02719963 C21.1397979,8.26555984 22.2269409,9.98642363 22.6912374,11.920705 C21.3166571,12.6694718 16.6065575,14.9969115 10.7379805,15.2784704 C10.7264305,14.9342845 10.728268,14.5850438 10.7430993,14.2337681 C10.9032898,14.2473569 11.0604615,14.2542498 11.2132364,14.2542498 C13.7338908,14.2542498 15.0007805,12.4299924 16.2258671,10.665211 C17.0928384,9.41693811 18.0700595,8.00960318 19.5993834,7.02719963 Z M14.0169312,5.05549963 C15.2678741,5.05549963 16.4844951,5.31500122 17.6337192,5.82658631 C17.8231785,5.91094237 18.0133596,6.00402946 18.2025563,6.10532239 C16.7403667,7.19880023 15.7941862,8.56169231 14.9495274,9.77845474 C13.7726095,11.4732568 12.9225695,12.6979625 11.2191427,12.6979625 C11.1135521,12.6979625 11.0043522,12.6933672 10.8920679,12.684111 C11.4496175,8.93430324 13.3037849,5.93661025 13.8951313,5.05654998 C13.9358844,5.05576222 13.9764406,5.05549963 14.0169312,5.05549963 Z M7.88736385,7.47235022 C9.01046928,6.42357781 10.4149745,5.67225081 11.9143734,5.30784572 C11.0499615,6.81260042 9.91097487,9.21461484 9.41806585,12.0814739 C8.25322296,11.2491388 6.9325208,9.73539047 7.88736385,7.47235022 Z M5.82864348,10.3652053 C5.9083778,10.1859241 5.99401836,10.0092687 6.08549954,9.83517353 C6.13373388,10.087257 6.20296821,10.3349422 6.29339939,10.5775069 C6.92812393,12.2779546 8.41341347,13.3298124 9.21193788,13.7926876 C9.17761603,14.3006621 9.16783791,14.806339 9.18325978,15.3030879 C7.79411079,15.2799802 6.42392742,15.1338506 5.10112527,14.8681782 C4.94913788,13.3326352 5.19884082,11.7814682 5.82864348,10.3652053 Z M7.16548938,18.6692561 C7.01094262,18.8572027 6.88507396,19.062874 6.7886709,19.2846943 C6.17783385,18.4471731 5.71353732,17.5045515 5.42085003,16.5085591 C6.69279285,16.7280818 7.99918877,16.8457864 9.31575655,16.8591127 C9.34469716,17.066819 9.37855963,17.2742627 9.41701586,17.4804592 C8.72742886,17.6081421 7.7828233,17.9181917 7.16548938,18.6692561 Z M10.3662808,22.1742015 C9.55082513,21.8115688 8.79771318,21.3307721 8.12505743,20.7435619 C8.06940747,20.2844942 8.14986366,19.9198922 8.36445725,19.6585525 C8.71003825,19.2369691 9.34988153,19.0639243 9.79002808,18.993354 C10.1745247,20.2437276 10.7425743,21.4474263 11.4849893,22.5844936 C11.1029865,22.4728941 10.7289899,22.3357581 10.3662808,22.1742015 Z M13.666494,22.9378044 C12.6523916,21.6887438 11.8933078,20.3414756 11.40473,18.9241624 C12.5916229,18.9882336 13.6136659,19.3464679 14.689587,19.7237397 C16.0276798,20.1924575 17.411185,20.67739 19.2046493,20.67739 C19.4638022,20.67739 19.7229552,20.6673461 19.984405,20.6473894 C18.2723156,22.1875277 16.013636,23.0219635 13.666494,22.9378044 Z M22.171619,17.6353198 C21.9913473,18.0399664 21.7768193,18.43772 21.5324976,18.8200466 C20.7206513,19.0187593 19.9613706,19.115457 19.2161337,19.115457 C17.6542598,19.115457 16.4086326,18.6787748 15.2038241,18.2566663 C13.9438907,17.8150606 12.6411041,17.3583562 11.0222678,17.3583562 C11.0081584,17.3583562 10.9940491,17.3583562 10.9799397,17.3583562 C10.9441085,17.1809131 10.9120179,17.0032073 10.8843242,16.8260267 C13.4660098,16.6949958 16.100786,16.184658 18.7232247,15.3076832 C20.5758171,14.6881092 22.0288191,14.0134576 22.9286028,13.5526831 C23.0005934,14.9506962 22.7419655,16.3513351 22.171619,17.6353198 Z" id="Fill-1" fill="#FFFFFF" mask="url(#mask-2)"></path>
        </g>
    </g>
</svg>